<?xml version="1.0" standalone="no"?>
<!DOCTYPE svg PUBLIC "-//W3C//DTD SVG 20010904//EN"
 "http://www.w3.org/TR/2001/REC-SVG-20010904/DTD/svg10.dtd">
<svg version="1.0" xmlns="http://www.w3.org/2000/svg"
 width="150.000000pt" height="150.000000pt" viewBox="0 0 150.000000 150.000000"
 preserveAspectRatio="xMidYMid meet">
<metadata>
Created by potrace 1.14, written by Peter Selinger 2001-2017
</metadata>
<g transform="translate(0.000000,150.000000) scale(0.100000,-0.100000)"
fill="#000000" stroke="none">
<path d="M410 1061 l0 -70 33 -3 32 -3 0 -235 0 -235 -32 -3 -33 -3 0 -71 0
-70 228 4 c205 4 232 6 283 26 155 61 232 182 231 362 0 175 -92 298 -261 350
-54 17 -93 20 -272 20 l-209 0 0 -69z m417 -99 c17 -12 40 -44 53 -74 19 -45
22 -65 18 -147 -6 -146 -49 -210 -156 -227 l-42 -7 0 243 0 243 49 -5 c27 -3
62 -14 78 -26z"/>
</g>
</svg>
